<?xml version="1.0" standalone="no"?>
<!DOCTYPE svg PUBLIC "-//W3C//DTD SVG 20010904//EN"
 "http://www.w3.org/TR/2001/REC-SVG-20010904/DTD/svg10.dtd">
<svg version="1.0" xmlns="http://www.w3.org/2000/svg"
 width="384.000000pt" height="384.000000pt" viewBox="0 0 384.000000 384.000000"
 preserveAspectRatio="xMidYMid meet">
<metadata>
Created by potrace 1.14, written by Peter Selinger 2001-2017
</metadata>
<g transform="translate(0.000000,384.000000) scale(0.100000,-0.100000)"
fill="#000000" stroke="none">
<path d="M675 3347 c-87 -34 -161 -112 -185 -194 -8 -26 -10 -149 -8 -373 3
-296 5 -339 20 -369 22 -43 22 -59 1 -102 -16 -30 -18 -73 -21 -369 -3 -327 2
-392 30 -424 13 -16 9 -50 -9 -87 -16 -30 -18 -73 -21 -369 -2 -225 1 -348 8
-375 24 -85 110 -170 196 -194 27 -8 319 -11 932 -11 980 0 935 -3 967 60 19
37 19 83 0 120 -32 63 12 60 -956 60 -628 0 -886 4 -896 11 -19 16 -19 601 0
617 8 7 65 11 147 11 132 0 134 0 169 29 66 53 66 131 0 184 -35 29 -37 29
-168 29 -101 0 -136 3 -147 14 -19 19 -21 594 -2 613 9 9 207 12 827 12 628 0
822 3 840 13 87 44 86 172 -1 214 -20 10 -212 13 -838 13 -577 0 -817 4 -827
11 -18 16 -19 599 -1 617 9 9 72 12 223 12 l212 0 39 34 c36 31 39 38 39 86 0
47 -3 55 -37 86 l-38 34 -232 -1 c-153 0 -243 -5 -263 -12z"/>
<path d="M1490 3347 c-33 -15 -47 -34 -61 -79 -16 -51 16 -118 64 -136 25 -9
231 -12 819 -12 649 0 788 -2 797 -14 8 -9 10 -101 9 -310 -3 -251 -5 -298
-18 -306 -8 -5 -97 -10 -197 -10 l-182 0 -35 -34 c-32 -29 -36 -39 -36 -82 0
-29 7 -59 16 -72 32 -46 61 -52 248 -52 147 0 177 -3 191 -16 14 -14 16 -50
13 -309 -2 -161 -7 -297 -11 -302 -5 -4 -385 -10 -845 -13 -460 -3 -845 -9
-854 -13 -27 -14 -58 -71 -58 -108 0 -39 28 -87 62 -105 18 -11 197 -13 850
-14 747 0 828 -2 843 -16 14 -14 16 -50 13 -309 -2 -161 -7 -297 -11 -302 -5
-4 -84 -10 -177 -13 -150 -4 -170 -7 -190 -25 -55 -49 -57 -132 -5 -184 25
-26 27 -26 206 -29 221 -4 257 5 335 82 84 84 85 95 82 492 -3 310 -5 342 -22
377 -19 38 -19 39 3 101 21 60 22 74 19 401 -3 307 -5 344 -21 377 -19 36 -18
38 2 100 19 59 21 86 21 384 1 245 -3 331 -13 360 -33 95 -106 169 -192 193
-58 16 -1630 14 -1665 -2z"/>
<path d="M2635 2950 c4 -6 -5 -20 -19 -31 -113 -89 -42 -279 104 -279 86 0
160 74 160 159 -1 51 -10 71 -57 125 -32 36 -33 36 -113 36 -54 0 -79 -4 -75
-10z"/>
<path d="M1018 2904 c-77 -41 -75 -169 2 -209 43 -22 797 -22 840 0 79 41 78
167 -2 211 -36 21 -803 19 -840 -2z"/>
<path d="M2639 2057 c-52 -35 -79 -82 -79 -137 0 -32 7 -58 23 -81 71 -106
203 -106 274 0 66 98 -15 241 -137 241 -32 0 -58 -7 -81 -23z"/>
<path d="M1018 2024 c-77 -41 -75 -169 2 -209 43 -22 797 -22 840 0 79 41 78
167 -2 211 -36 21 -803 19 -840 -2z"/>
<path d="M2639 1177 c-52 -35 -79 -82 -79 -137 0 -122 143 -203 241 -137 52
35 79 82 79 137 0 122 -143 203 -241 137z"/>
<path d="M1018 1144 c-77 -41 -75 -169 2 -209 43 -22 797 -22 840 0 79 41 79
169 0 210 -43 22 -801 22 -842 -1z"/>
</g>
</svg>
