<svg xmlns="http://www.w3.org/2000/svg" version="1.1" xmlns:xlink="http://www.w3.org/1999/xlink" xmlns:svgjs="http://svgjs.com/svgjs" width="400.000000pt" height="400.000000pt"><svg version="1.0" xmlns="http://www.w3.org/2000/svg" width="400.000000pt" height="400.000000pt" viewBox="0 0 400.000000 400.000000" preserveAspectRatio="xMidYMid meet">
<metadata>
Created by potrace 1.14, written by Peter Selinger 2001-2017
</metadata>
<g transform="translate(0.000000,400.000000) scale(0.100000,-0.100000)" fill="#000000" stroke="none">
<path d="M720 3487 c-90 -25 -154 -79 -192 -162 -23 -49 -23 -55 -23 -410 0
-358 0 -360 24 -408 l23 -48 -23 -52 c-23 -51 -24 -61 -27 -377 -4 -332 2
-407 35 -457 14 -21 13 -28 -8 -76 -24 -52 -24 -55 -24 -412 l0 -360 28 -57
c32 -64 80 -111 146 -142 46 -21 51 -21 998 -21 950 0 952 0 980 21 15 11 34
39 42 61 13 35 13 46 0 78 -8 21 -27 47 -42 59 -28 21 -30 21 -963 24 l-934 2
-5 23 c-3 12 -4 159 -3 327 l3 305 145 7 c163 8 199 19 224 73 22 46 20 86 -7
126 -31 47 -72 58 -214 58 -67 1 -128 4 -137 7 -14 5 -16 43 -16 324 0 281 2
319 16 324 9 3 388 6 842 6 517 0 840 4 863 10 101 28 126 159 40 217 l-34 23
-701 1 c-386 1 -773 4 -861 8 l-160 6 0 325 0 325 232 5 c216 5 234 6 260 26
15 12 34 38 42 59 13 32 13 43 0 78 -8 22 -27 50 -42 61 -27 20 -43 21 -255
23 -157 2 -241 -2 -272 -10z"></path>
<path d="M1554 3485 c-78 -40 -87 -163 -15 -212 24 -17 85 -18 866 -23 l840
-5 0 -325 0 -325 -198 -8 c-220 -8 -244 -14 -271 -71 -21 -45 -20 -84 4 -123
32 -53 49 -57 255 -63 105 -3 196 -9 203 -13 9 -6 12 -81 12 -317 0 -236 -3
-311 -12 -317 -7 -4 -402 -10 -878 -13 -829 -5 -866 -6 -893 -24 -54 -37 -71
-99 -42 -160 33 -69 -12 -66 842 -67 422 -1 815 -4 873 -8 l105 -6 3 -314 c2
-223 -1 -318 -9 -327 -9 -11 -48 -14 -173 -14 -142 0 -165 -2 -193 -20 -89
-54 -79 -180 17 -220 19 -8 86 -11 207 -8 161 3 183 5 230 27 65 29 124 91
149 157 17 45 19 79 19 404 0 351 0 356 -23 407 -22 47 -22 53 -9 75 33 51 39
127 35 463 -3 322 -4 331 -26 374 l-23 44 23 51 c23 50 23 56 23 411 0 345 -1
362 -21 406 -31 66 -78 114 -142 146 l-57 28 -845 2 c-739 3 -849 1 -876 -12z"></path>
<path d="M2764 3071 c-33 -15 -83 -78 -90 -116 -15 -82 20 -154 90 -186 55
-25 94 -24 146 4 50 26 90 90 90 141 -1 46 -33 110 -71 136 -35 26 -127 37
-165 21z"></path>
<path d="M1300 3041 c-186 -5 -220 -9 -244 -24 -36 -24 -59 -80 -51 -123 6
-36 52 -85 87 -96 13 -3 196 -6 408 -6 212 0 395 3 408 6 36 11 79 59 86 97 9
46 -18 103 -59 126 -37 21 -300 29 -635 20z"></path>
<path d="M2788 2160 c-96 -30 -148 -144 -104 -228 66 -127 232 -127 296 -1 23
44 25 72 9 120 -28 81 -124 134 -201 109z"></path>
<path d="M1096 2120 c-92 -28 -122 -144 -53 -208 42 -39 92 -43 489 -40 362 3
378 4 405 24 39 29 66 86 58 124 -10 44 -51 88 -93 100 -45 12 -764 12 -806 0z"></path>
<path d="M2764 1231 c-62 -29 -89 -73 -89 -148 0 -47 5 -68 21 -89 35 -48 70
-67 126 -71 71 -5 124 25 156 87 27 55 28 92 1 146 -38 79 -135 113 -215 75z"></path>
<path d="M1085 1200 c-34 -14 -76 -65 -81 -101 -7 -46 22 -100 66 -121 32 -16
74 -18 435 -18 384 0 401 1 433 20 40 25 66 81 58 125 -7 36 -48 82 -84 96
-29 11 -800 11 -827 -1z"></path>
</g>
</svg><style>@media (prefers-color-scheme: light) { :root { filter: none; } }
@media (prefers-color-scheme: dark) { :root { filter: invert(100%); } }
</style></svg>