<svg xmlns="http://www.w3.org/2000/svg" version="1.1" xmlns:xlink="http://www.w3.org/1999/xlink" xmlns:svgjs="http://svgjs.com/svgjs" width="1000" height="1000"><rect width="1000" height="1000" rx="250" ry="250" fill="#ffffff"></rect><g transform="matrix(1,0,0,1,0,0)"><svg xmlns="http://www.w3.org/2000/svg" version="1.1" xmlns:xlink="http://www.w3.org/1999/xlink" xmlns:svgjs="http://svgjs.com/svgjs" width="400.000000pt" height="400.000000pt"><svg version="1.0" xmlns="http://www.w3.org/2000/svg" width="400.000000pt" height="400.000000pt" viewBox="0 0 400.000000 400.000000" preserveAspectRatio="xMidYMid meet">

<g transform="translate(0.000000,400.000000) scale(0.100000,-0.100000)" fill="#000000" stroke="none">
<path d="M715 3486 c-95 -30 -158 -87 -191 -172 -17 -45 -19 -80 -19 -404 0
-348 0 -356 23 -404 l22 -49 -22 -46 c-23 -45 -23 -52 -23 -411 0 -359 0 -366
23 -411 l22 -46 -22 -49 c-23 -48 -23 -56 -23 -404 0 -325 2 -359 19 -404 25
-66 84 -128 149 -157 l52 -24 945 -3 c934 -2 945 -2 978 18 34 21 62 72 62
112 0 13 -9 37 -20 55 -40 67 16 63 -998 63 -701 0 -921 3 -930 12 -9 9 -12
95 -12 325 l0 313 23 4 c12 3 78 7 147 10 69 2 137 9 152 15 44 16 70 67 65
124 -8 90 -57 117 -215 117 -60 0 -124 3 -141 6 l-31 7 0 313 c0 289 1 314 18
323 10 5 350 10 855 10 947 2 889 -3 928 79 19 38 20 49 10 82 -6 21 -25 50
-42 64 -27 23 -40 26 -107 27 -42 0 -426 1 -852 3 -426 1 -783 6 -793 10 -16
8 -17 31 -15 330 l3 321 230 5 c250 5 262 8 295 63 25 41 25 83 0 124 -36 59
-55 63 -302 62 -150 0 -236 -4 -263 -13z"></path>
<path d="M1552 3483 c-84 -41 -83 -176 2 -217 31 -14 116 -16 853 -16 624 0
822 -3 831 -12 9 -9 12 -94 12 -320 0 -283 -1 -308 -17 -316 -10 -5 -100 -12
-200 -15 -200 -6 -231 -14 -258 -67 -33 -64 -5 -149 58 -175 20 -8 103 -16
222 -22 l190 -8 0 -315 0 -315 -85 -7 c-47 -3 -435 -6 -863 -7 -829 -1 -817 0
-861 -49 -10 -12 -21 -41 -23 -65 -6 -55 15 -100 60 -124 30 -17 91 -18 884
-20 591 -1 859 -5 873 -13 19 -10 20 -19 20 -311 0 -188 -4 -308 -10 -320 -10
-18 -23 -19 -176 -19 -136 0 -171 -3 -194 -16 -38 -23 -60 -64 -60 -114 0 -36
6 -48 39 -81 l39 -39 179 0 c229 0 264 9 344 89 89 90 91 98 87 518 -3 341 -3
349 -26 391 l-23 43 23 47 c23 46 23 55 26 400 l3 352 -25 61 -25 61 22 42
c21 40 22 51 22 401 0 330 -2 364 -19 409 -25 66 -84 128 -149 157 l-52 24
-845 2 c-766 3 -848 1 -878 -14z"></path>
<path d="M2765 3070 c-11 -4 -36 -24 -55 -44 -30 -32 -35 -44 -38 -99 -3 -52
0 -67 20 -96 54 -79 136 -101 218 -59 62 32 92 85 87 156 -6 91 -72 152 -161
151 -28 0 -60 -4 -71 -9z"></path>
<path d="M1115 3041 c-67 -17 -115 -67 -115 -121 0 -40 32 -92 70 -112 32 -17
66 -18 430 -18 442 0 447 1 482 71 23 44 23 76 -2 116 -41 67 -43 68 -460 70
-206 1 -388 -2 -405 -6z"></path>
<path d="M2761 2148 c-55 -28 -81 -62 -88 -116 -8 -62 4 -108 40 -146 64 -68
171 -69 235 -2 56 57 66 121 31 192 -39 82 -138 114 -218 72z"></path>
<path d="M1094 2123 c-12 -2 -36 -20 -55 -39 -29 -30 -34 -42 -34 -84 0 -40 5
-54 30 -80 16 -16 46 -35 67 -41 24 -6 181 -9 421 -7 359 3 384 4 414 23 65
39 80 129 31 183 -47 51 -58 52 -470 51 -211 -1 -392 -4 -404 -6z"></path>
<path d="M2776 1240 c-63 -19 -106 -83 -106 -158 0 -90 72 -162 162 -162 93 0
159 61 165 153 9 119 -102 202 -221 167z"></path>
<path d="M1062 1189 c-61 -40 -78 -107 -42 -166 38 -63 37 -63 482 -63 382 0
405 1 435 20 83 50 82 158 0 209 -33 20 -45 21 -438 21 -393 0 -405 -1 -437
-21z"></path>
</g>
</svg></svg></g></svg>